<svg xmlns:dc="http://purl.org/dc/elements/1.1/" xmlns:cc="http://creativecommons.org/ns#" xmlns:rdf="http://www.w3.org/1999/02/22-rdf-syntax-ns#" xmlns:svg="http://www.w3.org/2000/svg" xmlns="http://www.w3.org/2000/svg" xmlns:sodipodi="http://sodipodi.sourceforge.net/DTD/sodipodi-0.dtd" xmlns:inkscape="http://www.inkscape.org/namespaces/inkscape" version="1.1" x="0px" y="0px" viewBox="0 0 100 100"><g transform="translate(0,-952.36218)"><path style="text-indent:0;text-transform:none;direction:ltr;block-progression:tb;baseline-shift:baseline;color:#000000;enable-background:accumulate;" d="m 50,962.36218 c -22.0677,0 -40,17.93244 -40,40.00002 0,22.0676 17.9323,40 40,40 22.0677,0 40,-17.9324 40,-40 0,-22.06758 -17.9323,-40.00002 -40,-40.00002 z m 0,4 c 19.90592,0 36,16.09422 36,36.00002 0,19.9058 -16.09408,36 -36,36 -19.90592,0 -36,-16.0942 -36,-36 0,-19.9058 16.09408,-36.00002 36,-36.00002 z m -11,18 0,36.00002 30,-18 -30,-18.00002 z" fill="#5A5A5A" fill-opacity="1" stroke="none" marker="none" visibility="visible" display="inline" overflow="visible"></path></g></svg>