<svg width="18" height="20" viewBox="0 0 18 20" fill="none" xmlns="http://www.w3.org/2000/svg">
<path d="M1.63636 11.3725C1.63636 14.9422 5.27625 18.4314 9 18.4314C12.7238 18.4314 16.3636 14.9422 16.3636 11.3726C16.3636 7.80294 12.7238 4.70588 9 4.70588V7.84314L3.27273 3.92157L9 0V3.13725C13.9725 3.13725 18 6.60588 18 11.3726C18 16.1392 13.9725 20 9 20C4.0275 20 0 16.1392 0 11.3726L1.63636 11.3725Z" fill="#6E6F70"/>
<path d="M7.50389 14.6078V10.0029H7.40264L5.41139 10.6823V11.4265L6.54764 11.0922V14.6078H7.50389Z" fill="#6E6F70"/>
<path fill-rule="evenodd" clip-rule="evenodd" d="M10.6875 9.94902C10.935 9.94902 11.1488 9.98137 11.3513 10.0569C11.5425 10.1323 11.7225 10.251 11.8688 10.4127C12.015 10.5745 12.1275 10.7902 12.2063 11.0274C12.285 11.2647 12.33 11.5667 12.33 11.9118V12.7098C12.33 13.0549 12.2963 13.3461 12.2175 13.5941C12.1388 13.8422 12.0263 14.0471 11.8913 14.2088C11.7563 14.3706 11.5875 14.4892 11.385 14.5647C11.1825 14.6402 10.9688 14.6725 10.7213 14.6725C10.4738 14.6725 10.26 14.6402 10.0575 14.5647C9.85505 14.4892 9.6863 14.3706 9.54005 14.2088C9.3938 14.0471 9.2813 13.8314 9.20255 13.5941C9.1238 13.3569 9.0788 13.0549 9.0788 12.7098V11.9118C9.0788 11.5667 9.1238 11.2755 9.1913 11.0274C9.2588 10.7794 9.38255 10.5745 9.51755 10.4127C9.65255 10.251 9.8213 10.1323 10.0238 10.0569C10.2263 9.98137 10.44 9.94902 10.6875 9.94902ZM11.3175 13.3461C11.3513 13.2059 11.3625 13.0333 11.3625 12.8284H11.3738V11.7823C11.3738 11.5774 11.3625 11.4049 11.3288 11.2647C11.295 11.1245 11.25 11.0167 11.1938 10.9304C11.1375 10.8441 11.0588 10.7794 10.98 10.7471C10.9013 10.7147 10.8 10.6931 10.6988 10.6931C10.5975 10.6931 10.5075 10.7147 10.4175 10.7471C10.3275 10.7794 10.2713 10.8441 10.2038 10.9304C10.1363 11.0167 10.1025 11.1245 10.0688 11.2647C10.035 11.4049 10.0238 11.5774 10.0238 11.7823V12.8284C10.0238 13.0333 10.035 13.2059 10.0688 13.3461C10.1025 13.4863 10.1475 13.6049 10.2038 13.6912C10.26 13.7774 10.3388 13.8422 10.4175 13.8745C10.4963 13.9069 10.5975 13.9284 10.6988 13.9284C10.8 13.9284 10.89 13.9069 10.98 13.8745C11.07 13.8422 11.1375 13.7774 11.1938 13.6912C11.25 13.6049 11.2838 13.4863 11.3175 13.3461Z" fill="#6E6F70"/>
</svg>
