<svg width="18" height="20" viewBox="0 0 18 20" fill="none" xmlns="http://www.w3.org/2000/svg">
<path d="M16.3636 11.3725C16.3636 14.9422 12.7238 18.4314 9 18.4314C5.27625 18.4314 1.63636 14.9422 1.63636 11.3726C1.63636 7.80294 5.27625 4.70588 9 4.70588V7.84314L14.7273 3.92157L9 0V3.13725C4.0275 3.13725 0 6.60588 0 11.3726C0 16.1392 4.0275 20 9 20C13.9725 20 18 16.1392 18 11.3726L16.3636 11.3725Z" fill="#6E6F70"/>
<path d="M7.76252 14.6078V10.0029H7.66127L5.67002 10.6823V11.4265L6.80627 11.0922V14.6078H7.76252Z" fill="#6E6F70"/>
<path fill-rule="evenodd" clip-rule="evenodd" d="M10.9462 9.94902C11.1937 9.94902 11.4075 9.98137 11.61 10.0569C11.8012 10.1323 11.9812 10.251 12.1275 10.4127C12.2737 10.5745 12.3862 10.7902 12.465 11.0274C12.5437 11.2647 12.5887 11.5667 12.5887 11.9118V12.7098C12.5887 13.0549 12.555 13.3461 12.4762 13.5941C12.3975 13.8422 12.285 14.0471 12.15 14.2088C12.015 14.3706 11.8462 14.4892 11.6437 14.5647C11.4412 14.6402 11.2275 14.6725 10.98 14.6725C10.7325 14.6725 10.5187 14.6402 10.3162 14.5647C10.1137 14.4892 9.94498 14.3706 9.79873 14.2088C9.65248 14.0471 9.53998 13.8314 9.46123 13.5941C9.38248 13.3569 9.33748 13.0549 9.33748 12.7098V11.9118C9.33748 11.5667 9.38248 11.2755 9.44998 11.0274C9.51748 10.7794 9.64123 10.5745 9.77623 10.4127C9.91123 10.251 10.08 10.1323 10.2825 10.0569C10.485 9.98137 10.6987 9.94902 10.9462 9.94902ZM11.5762 13.3461C11.61 13.2059 11.6212 13.0333 11.6212 12.8284H11.6325V11.7823C11.6325 11.5774 11.6212 11.4049 11.5875 11.2647C11.5537 11.1245 11.5087 11.0167 11.4525 10.9304C11.3962 10.8441 11.3175 10.7794 11.2387 10.7471C11.16 10.7147 11.0587 10.6931 10.9575 10.6931C10.8562 10.6931 10.7662 10.7147 10.6762 10.7471C10.5862 10.7794 10.53 10.8441 10.4625 10.9304C10.395 11.0167 10.3612 11.1245 10.3275 11.2647C10.2937 11.4049 10.2825 11.5774 10.2825 11.7823V12.8284C10.2825 13.0333 10.2937 13.2059 10.3275 13.3461C10.3612 13.4863 10.4062 13.6049 10.4625 13.6912C10.5187 13.7774 10.5975 13.8422 10.6762 13.8745C10.755 13.9069 10.8562 13.9284 10.9575 13.9284C11.0587 13.9284 11.1487 13.9069 11.2387 13.8745C11.3287 13.8422 11.3962 13.7774 11.4525 13.6912C11.5087 13.6049 11.5425 13.4863 11.5762 13.3461Z" fill="#6E6F70"/>
</svg>
