<svg width="15" height="16" viewBox="0 0 15 16" fill="none" xmlns="http://www.w3.org/2000/svg">
<path d="M8.99848 1.27857L5.94963 4.32738C5.94374 4.33324 5.94008 4.34036 5.93422 4.34628C6.68531 4.23688 7.4569 4.31188 8.17216 4.59079L10.2414 2.52155C10.9269 1.83603 12.0418 1.83603 12.7273 2.52155C13.4129 3.20701 13.4129 4.32196 12.7273 5.00742C12.6104 5.12437 9.50224 8.23257 9.67852 8.05623C8.98758 8.74723 7.85402 8.71767 7.19258 8.05623C6.85001 7.71366 6.29226 7.71366 5.94963 8.05623L5.41602 8.58985C5.56402 8.84133 5.73371 9.08332 5.94963 9.29924C7.25159 10.6012 9.49263 10.7052 10.9026 9.31465C10.9085 9.30879 10.9156 9.3051 10.9215 9.29924L13.9703 6.25043C15.3432 4.87746 15.3432 2.65154 13.9703 1.27857C12.5973 -0.0944023 10.3714 -0.0944023 8.99848 1.27857V1.27857Z" fill="#5A5A5A"/>
<path d="M6.83448 10.9003L4.75857 12.9762C4.07311 13.6617 2.95816 13.6617 2.27271 12.9762C1.58719 12.2907 1.58719 11.1758 2.27271 10.4903C2.3896 10.3734 5.50444 7.25849 5.32816 7.43478C6.01909 6.74383 7.15265 6.77334 7.81408 7.43478C8.15665 7.7774 8.71443 7.7774 9.05703 7.43478L9.59064 6.90116C9.44263 6.64967 9.27294 6.40768 9.05703 6.19182C7.75757 4.89229 5.51818 4.78172 4.10408 6.17638C4.09819 6.18224 4.0911 6.18593 4.08518 6.19182L1.0297 9.24733C-0.343205 10.6202 -0.343263 12.8462 1.0297 14.2192C2.40267 15.5921 4.62864 15.5921 6.00155 14.2192L9.057 11.1637C9.06288 11.1578 9.06655 11.1508 9.07241 11.1448C8.32132 11.2542 7.54976 11.1792 6.83448 10.9003V10.9003Z" fill="#5A5A5A"/>
</svg>
